<svg width="19" height="18" viewBox="0 0 19 18" fill="none" xmlns="http://www.w3.org/2000/svg">
<path fill-rule="evenodd" clip-rule="evenodd" d="M13.5484 2.48572H12.7117V3.8167C12.7117 4.35997 12.2789 4.80023 11.7446 4.80023C11.2102 4.80023 10.7775 4.3597 10.7775 3.8167V2.48572H7.0134V3.8167C7.0134 4.35997 6.58088 4.80023 6.04654 4.80023C5.5122 4.80023 5.07943 4.3597 5.07943 3.8167V2.48572H4.24269C3.20331 2.48572 2.36066 3.34245 2.36066 4.39918V14.3385C2.36066 15.3955 3.20331 16.2517 4.24269 16.2517H11.3295C10.6126 15.4726 10.1729 14.4266 10.1729 13.2755C10.1729 10.8685 12.092 8.91683 14.4595 8.91683C14.7938 8.91683 15.1183 8.95709 15.4305 9.03055V4.39892C15.4305 3.34245 14.5881 2.48572 13.5484 2.48572ZM7.84988 13.0491H3.82483C3.57926 13.0491 3.38023 12.8468 3.38023 12.5971C3.38023 12.3474 3.579 12.1451 3.82483 12.1451H7.84988C8.09546 12.1451 8.29448 12.3474 8.29448 12.5971C8.29448 12.8468 8.09546 13.0491 7.84988 13.0491ZM7.84988 10.1393H3.82483C3.57926 10.1393 3.38023 9.93696 3.38023 9.68729C3.38023 9.43761 3.579 9.23526 3.82483 9.23526H7.84988C8.09546 9.23526 8.29448 9.43761 8.29448 9.68729C8.29448 9.93696 8.09546 10.1393 7.84988 10.1393ZM13.9665 7.02977H3.82483C3.57926 7.02977 3.38023 6.82794 3.38023 6.57774C3.38023 6.32833 3.579 6.12624 3.82483 6.12624H13.9665C14.2119 6.12624 14.4111 6.32807 14.4111 6.57774C14.4111 6.82768 14.2121 7.02977 13.9665 7.02977Z" fill="#DE0108"/>
<path fill-rule="evenodd" clip-rule="evenodd" d="M6.62194 3.62824C6.62194 3.95112 6.36428 4.21308 6.04671 4.21308C5.7294 4.21308 5.47174 3.95138 5.47174 3.62824V1.66197C5.47174 1.33909 5.7294 1.07739 6.04671 1.07739C6.36428 1.07739 6.62194 1.33909 6.62194 1.66197V3.62824Z" fill="#DE0108"/>
<path fill-rule="evenodd" clip-rule="evenodd" d="M12.3199 3.62824C12.3199 3.95112 12.0625 4.21308 11.7449 4.21308C11.4274 4.21308 11.1702 3.95138 11.1702 3.62824V1.66197C11.1702 1.33909 11.4274 1.07739 11.7449 1.07739C12.0625 1.07739 12.3199 1.33909 12.3199 1.66197V3.62824Z" fill="#DE0108"/>
<path fill-rule="evenodd" clip-rule="evenodd" d="M14.4594 9.80237C12.573 9.80237 11.044 11.3574 11.044 13.2753C11.044 15.193 12.573 16.7477 14.4594 16.7477C16.3458 16.7477 17.875 15.193 17.875 13.2753C17.8753 11.3577 16.3458 9.80237 14.4594 9.80237ZM15.7675 13.9435H14.1953C14.1431 13.9435 14.0935 13.9328 14.0482 13.9143C14.0464 13.9132 14.0441 13.9132 14.0423 13.9122C14.0222 13.9035 14.0035 13.8923 13.9849 13.8805C13.9816 13.8787 13.9785 13.8774 13.9754 13.8753C13.9626 13.8664 13.9507 13.8552 13.9389 13.8445C13.932 13.8384 13.9237 13.8335 13.9173 13.8267C13.9106 13.8199 13.9055 13.8115 13.8996 13.8045C13.8893 13.7924 13.8782 13.7807 13.8695 13.7673C13.8674 13.7645 13.8664 13.7613 13.8643 13.7579C13.8525 13.7394 13.8417 13.72 13.8332 13.6994C13.8322 13.6975 13.8319 13.6952 13.8312 13.6936C13.8129 13.6471 13.8024 13.5971 13.8024 13.5441V11.9456C13.8024 11.725 13.9783 11.5462 14.1953 11.5462C14.4123 11.5462 14.5882 11.7252 14.5882 11.9456V13.1446H15.7675C15.9845 13.1446 16.1604 13.3234 16.1604 13.5441C16.1604 13.7647 15.9845 13.9435 15.7675 13.9435Z" fill="#DE0108"/>
</svg>
