<svg width="18" height="16" viewBox="0 0 18 16" fill="none" xmlns="http://www.w3.org/2000/svg">
<path d="M3.92167 4.27401C5.08479 4.27401 6.02767 3.33112 6.02767 2.16801C6.02767 1.0049 5.08479 0.0620117 3.92167 0.0620117C2.75856 0.0620117 1.81567 1.0049 1.81567 2.16801C1.81567 3.33112 2.75856 4.27401 3.92167 4.27401Z" fill="#DE0108"/>
<path d="M5.10953 9.38597L5.30753 7.76597C5.41553 6.91998 5.82953 6.19998 6.44153 5.69598C6.02753 5.17398 5.39753 4.84998 4.69553 4.84998H3.12953C1.99553 4.84998 1.04153 5.69598 0.915527 6.82998L0.699527 8.62997C0.663527 8.86397 0.825527 9.07997 1.05953 9.13397C1.95953 9.33197 2.93153 9.42197 3.92153 9.42197C4.33553 9.43997 4.73153 9.42197 5.10953 9.38597Z" fill="#DE0108"/>
<path d="M14.5776 4.27401C15.7407 4.27401 16.6836 3.33112 16.6836 2.16801C16.6836 1.0049 15.7407 0.0620117 14.5776 0.0620117C13.4144 0.0620117 12.4716 1.0049 12.4716 2.16801C12.4716 3.33112 13.4144 4.27401 14.5776 4.27401Z" fill="#DE0108"/>
<path d="M17.5834 6.81203C17.4574 5.67803 16.4854 4.83203 15.3694 4.83203H13.8034C13.1014 4.83203 12.4714 5.15603 12.0574 5.67803C12.6694 6.18203 13.1014 6.90203 13.1914 7.74803L13.3894 9.36803C13.7674 9.40403 14.1814 9.42203 14.5774 9.42203C15.5854 9.42203 16.5394 9.31403 17.4394 9.13403C17.6734 9.08003 17.8174 8.86403 17.7994 8.63003L17.5834 6.81203Z" fill="#DE0108"/>
<path d="M12.4714 9.69199L12.2554 7.87399C12.1294 6.75799 11.1754 5.91199 10.0414 5.91199H8.47541C7.34141 5.91199 6.38741 6.75799 6.26141 7.87399L6.04541 9.69199C6.00941 9.92599 6.17141 10.16 6.40541 10.196C7.30541 10.394 8.27741 10.484 9.26741 10.484C10.2754 10.484 11.2294 10.376 12.1294 10.196C12.3454 10.16 12.4894 9.92599 12.4714 9.69199Z" fill="#DE0108"/>
<path d="M9.24937 5.33602C10.4125 5.33602 11.3554 4.39313 11.3554 3.23002C11.3554 2.06691 10.4125 1.12402 9.24937 1.12402C8.08626 1.12402 7.14337 2.06691 7.14337 3.23002C7.14337 4.39313 8.08626 5.33602 9.24937 5.33602Z" fill="#DE0108"/>
<path d="M11.2298 12.842L10.3118 12.77C10.1678 12.752 10.0238 12.662 9.96976 12.518L9.60976 11.672C9.46576 11.348 8.99776 11.348 8.87176 11.672L8.51176 12.518C8.45776 12.662 8.33176 12.752 8.16976 12.77L7.26976 12.842C6.90976 12.878 6.76576 13.31 7.03576 13.544L7.73776 14.138C7.84576 14.228 7.89976 14.39 7.86376 14.534L7.64776 15.434C7.55776 15.776 7.93576 16.046 8.24176 15.866L9.03376 15.38C9.15976 15.308 9.32176 15.308 9.44776 15.38L10.2398 15.866C10.5458 16.046 10.9238 15.776 10.8338 15.434L10.6178 14.534C10.5818 14.39 10.6358 14.228 10.7438 14.138L11.4458 13.544C11.7338 13.31 11.5898 12.878 11.2298 12.842Z" fill="#DE0108"/>
<path d="M16.5575 11.7801L15.6395 11.7081C15.4955 11.6901 15.3515 11.6001 15.2975 11.4561L14.9375 10.6101C14.7935 10.2861 14.3255 10.2861 14.1995 10.6101L13.8395 11.4561C13.7855 11.6001 13.6595 11.6901 13.4975 11.7081L12.5975 11.7801C12.2375 11.8161 12.0935 12.2481 12.3635 12.4821L13.0655 13.0761C13.1735 13.1661 13.2275 13.3281 13.1915 13.4721L12.9755 14.3721C12.8855 14.7141 13.2635 15.0021 13.5695 14.8041L14.3615 14.3181C14.4875 14.2461 14.6495 14.2461 14.7755 14.3181L15.5675 14.8041C15.8735 14.9841 16.2515 14.7141 16.1615 14.3721L15.9455 13.4721C15.9095 13.3281 15.9635 13.1661 16.0715 13.0761L16.7735 12.4821C17.0615 12.2481 16.9175 11.8161 16.5575 11.7801Z" fill="#DE0108"/>
<path d="M5.90158 11.7801L4.98358 11.7081C4.83958 11.6901 4.69558 11.6001 4.64158 11.4561L4.28158 10.6101C4.13758 10.2861 3.66958 10.2861 3.54358 10.6101L3.18358 11.4561C3.12958 11.6001 3.00358 11.6901 2.84158 11.7081L1.94158 11.7801C1.58158 11.8161 1.43758 12.2481 1.70758 12.4821L2.40958 13.0761C2.51758 13.1661 2.57158 13.3281 2.53558 13.4721L2.31958 14.3721C2.22958 14.7141 2.60758 15.0021 2.91358 14.8041L3.70558 14.3181C3.83158 14.2461 3.99358 14.2461 4.11958 14.3181L4.91158 14.8041C5.21758 14.9841 5.59558 14.7141 5.50558 14.3721L5.28958 13.4721C5.25358 13.3281 5.30758 13.1661 5.41558 13.0761L6.11758 12.4821C6.40558 12.2481 6.26158 11.8161 5.90158 11.7801Z" fill="#DE0108"/>
</svg>
