<svg width="19" height="14" viewBox="0 0 19 14" fill="none" xmlns="http://www.w3.org/2000/svg">
<path d="M17.9457 9.44793C17.7297 8.15193 16.5777 5.03793 15.7497 2.91393C15.4617 2.17593 14.8857 1.61793 14.1837 1.34793C14.1477 1.23993 14.0937 1.13193 14.0577 1.02393C13.8237 0.393933 13.1577 0.033933 12.5097 0.141933L12.2577 0.177933C11.5917 0.285933 11.1057 0.861933 11.0877 1.52793C11.0877 1.68993 11.0697 1.86993 11.0697 2.04993C10.6557 2.51793 10.3857 3.11193 10.3497 3.75993C10.0797 3.61593 9.77368 3.52593 9.43168 3.52593C9.10768 3.52593 8.78368 3.61593 8.51368 3.75993C8.47768 3.11193 8.22568 2.49993 7.79368 2.04993C7.79368 1.86993 7.79368 1.68993 7.77568 1.52793C7.75768 0.861933 7.27168 0.285933 6.60568 0.177933L6.38968 0.141933C5.72368 0.033933 5.07568 0.393933 4.84168 1.02393C4.80568 1.13193 4.75168 1.23993 4.71568 1.34793C4.01368 1.63593 3.43768 2.17593 3.14968 2.91393C2.33968 5.01993 1.18768 8.13393 0.953682 9.44793C0.593682 11.4999 1.97968 13.4619 4.04968 13.8219C6.08368 14.1639 7.99168 12.8499 8.40568 10.8339C8.71168 11.0139 9.07168 11.1399 9.44968 11.1399C9.82768 11.1399 10.1877 11.0319 10.4937 10.8339C10.9077 12.8499 12.8337 14.1639 14.8497 13.8219C16.9197 13.4619 18.3057 11.4999 17.9457 9.44793ZM4.67968 12.4539C3.38368 12.4539 2.32168 11.3919 2.32168 10.0959C2.32168 8.79993 3.38368 7.73793 4.67968 7.73793C5.97568 7.73793 7.03768 8.79993 7.03768 10.0959C7.05568 11.3919 5.99368 12.4539 4.67968 12.4539ZM9.44968 10.0239C8.94568 10.0239 8.53168 9.60993 8.53168 9.10593C8.53168 8.60193 8.94568 8.18793 9.44968 8.18793C9.95368 8.18793 10.3677 8.60193 10.3677 9.10593C10.3677 9.60993 9.95368 10.0239 9.44968 10.0239ZM14.2197 12.4539C12.9237 12.4539 11.8617 11.3919 11.8617 10.0959C11.8617 8.79993 12.9237 7.73793 14.2197 7.73793C15.5157 7.73793 16.5777 8.79993 16.5777 10.0959C16.5777 11.3919 15.5157 12.4539 14.2197 12.4539Z" fill="#DE0108"/>
</svg>
