<svg width="30" height="60" viewBox="0 0 30 60" fill="none" xmlns="http://www.w3.org/2000/svg">
<path d="M15 0V60" stroke="#878787" stroke-opacity="0.5"/>
<circle cx="15" cy="30" r="15" fill="white"/>
<circle cx="15" cy="30" r="14.5" stroke="#878787" stroke-opacity="0.5"/>
<path opacity="0.4" fill-rule="evenodd" clip-rule="evenodd" d="M17.146 29.646C17.1925 29.5994 17.2477 29.5625 17.3084 29.5373C17.3692 29.5121 17.4343 29.4991 17.5 29.4991C17.5658 29.4991 17.6309 29.5121 17.6917 29.5373C17.7524 29.5625 17.8076 29.5994 17.854 29.646L20.854 32.646C20.9006 32.6924 20.9375 32.7476 20.9628 32.8083C20.988 32.8691 21.0009 32.9342 21.0009 33C21.0009 33.0657 20.988 33.1309 20.9628 33.1916C20.9375 33.2524 20.9006 33.3075 20.854 33.354L17.854 36.354C17.7602 36.4479 17.6328 36.5006 17.5 36.5006C17.3673 36.5006 17.2399 36.4479 17.146 36.354C17.0522 36.2601 16.9994 36.1328 16.9994 36C16.9994 35.8672 17.0522 35.7399 17.146 35.646L19.793 33L17.146 30.354C17.0995 30.3075 17.0625 30.2524 17.0373 30.1916C17.0121 30.1309 16.9991 30.0657 16.9991 30C16.9991 29.9342 17.0121 29.8691 17.0373 29.8083C17.0625 29.7476 17.0995 29.6924 17.146 29.646Z" fill="#878787"/>
<path opacity="0.4" fill-rule="evenodd" clip-rule="evenodd" d="M9.00004 33C9.00004 32.8674 9.05272 32.7402 9.14649 32.6464C9.24025 32.5527 9.36743 32.5 9.50004 32.5H20C20.1326 32.5 20.2598 32.5527 20.3536 32.6464C20.4474 32.7402 20.5 32.8674 20.5 33C20.5 33.1326 20.4474 33.2598 20.3536 33.3535C20.2598 33.4473 20.1326 33.5 20 33.5H9.50004C9.36743 33.5 9.24025 33.4473 9.14649 33.3535C9.05272 33.2598 9.00004 33.1326 9.00004 33ZM12.854 23.646C12.9006 23.6924 12.9375 23.7476 12.9628 23.8083C12.988 23.8691 13.0009 23.9342 13.0009 24C13.0009 24.0657 12.988 24.1309 12.9628 24.1916C12.9375 24.2524 12.9006 24.3075 12.854 24.354L10.207 27L12.854 29.646C12.9005 29.6925 12.9374 29.7477 12.9626 29.8084C12.9877 29.8691 13.0007 29.9342 13.0007 30C13.0007 30.0657 12.9877 30.1308 12.9626 30.1916C12.9374 30.2523 12.9005 30.3075 12.854 30.354C12.8076 30.4005 12.7524 30.4373 12.6916 30.4625C12.6309 30.4877 12.5658 30.5006 12.5 30.5006C12.4343 30.5006 12.3692 30.4877 12.3085 30.4625C12.2477 30.4373 12.1925 30.4005 12.146 30.354L9.14604 27.354C9.09948 27.3075 9.06253 27.2524 9.03733 27.1916C9.01212 27.1309 8.99915 27.0657 8.99915 27C8.99915 26.9342 9.01212 26.8691 9.03733 26.8083C9.06253 26.7476 9.09948 26.6924 9.14604 26.646L12.146 23.646C12.1925 23.5994 12.2477 23.5625 12.3084 23.5373C12.3692 23.5121 12.4343 23.4991 12.5 23.4991C12.5658 23.4991 12.6309 23.5121 12.6917 23.5373C12.7524 23.5625 12.8076 23.5994 12.854 23.646Z" fill="#878787"/>
<path opacity="0.4" fill-rule="evenodd" clip-rule="evenodd" d="M9.5 27C9.5 26.8674 9.55268 26.7402 9.64645 26.6464C9.74021 26.5527 9.86739 26.5 10 26.5H20.5C20.6326 26.5 20.7598 26.5527 20.8536 26.6464C20.9473 26.7402 21 26.8674 21 27C21 27.1326 20.9473 27.2598 20.8536 27.3536C20.7598 27.4473 20.6326 27.5 20.5 27.5H10C9.86739 27.5 9.74021 27.4473 9.64645 27.3536C9.55268 27.2598 9.5 27.1326 9.5 27Z" fill="#878787"/>
</svg>
