<svg width="18" height="16" viewBox="0 0 18 16" fill="none" xmlns="http://www.w3.org/2000/svg">
<path fill-rule="evenodd" clip-rule="evenodd" d="M9.06492 0C6.71204 0 6.41676 0.00946411 5.49264 0.0481507C4.57034 0.0870034 3.94078 0.221327 3.38993 0.418413C2.82012 0.621975 2.33676 0.894276 1.85521 1.33743C1.3733 1.78042 1.0773 2.22506 0.855291 2.74908C0.640507 3.25599 0.49431 3.83529 0.452797 4.68341C0.411464 5.53352 0.400635 5.80532 0.400635 7.96978C0.400635 10.1342 0.411103 10.405 0.452977 11.2552C0.495393 12.1036 0.64141 12.6827 0.855472 13.1895C1.07693 13.7137 1.37294 14.1583 1.85467 14.6013C2.33604 15.0446 2.81939 15.3176 3.38884 15.5211C3.94006 15.7182 4.56979 15.8526 5.49192 15.8914C6.41604 15.9301 6.71114 15.9396 9.06384 15.9396C11.4169 15.9396 11.7113 15.9301 12.6354 15.8914C13.5577 15.8526 14.188 15.7182 14.7392 15.5211C15.3088 15.3176 15.7915 15.0446 16.2728 14.6013C16.7547 14.1583 17.0507 13.7137 17.2727 13.1897C17.4857 12.6827 17.6319 12.1034 17.6752 11.2553C17.7168 10.4052 17.7276 10.1342 17.7276 7.96978C17.7276 5.80532 17.7168 5.53368 17.6752 4.68357C17.6319 3.83512 17.4857 3.25599 17.2727 2.74924C17.0507 2.22506 16.7547 1.78042 16.2728 1.33743C15.7909 0.89411 15.309 0.621809 14.7387 0.418413C14.1864 0.221327 13.5564 0.0870034 12.6341 0.0481507C11.71 0.00946411 11.4158 0 9.06221 0H9.06492ZM8.28804 1.43613C8.5187 1.4358 8.77608 1.43613 9.06523 1.43613C11.3784 1.43613 11.6525 1.44377 12.566 1.48196C13.4107 1.51749 13.8691 1.64733 14.1745 1.75642C14.5788 1.90087 14.8671 2.07355 15.1701 2.35249C15.4733 2.63143 15.661 2.89709 15.8184 3.26901C15.937 3.54961 16.0783 3.97135 16.1168 4.7484C16.1583 5.58855 16.1673 5.84092 16.1673 7.96786C16.1673 10.0948 16.1583 10.3472 16.1168 11.1873C16.0781 11.9644 15.937 12.3861 15.8184 12.6667C15.6614 13.0386 15.4733 13.3035 15.1701 13.5822C14.8669 13.8612 14.579 14.0338 14.1745 14.1783C13.8695 14.2879 13.4107 14.4174 12.566 14.4529C11.6527 14.4911 11.3784 14.4994 9.06523 14.4994C6.75189 14.4994 6.47773 14.4911 5.56445 14.4529C4.71976 14.4171 4.26131 14.2872 3.95575 14.1781C3.55145 14.0337 3.26267 13.861 2.95944 13.5821C2.65622 13.3031 2.46851 13.0381 2.31112 12.666C2.19254 12.3854 2.05122 11.9637 2.01278 11.1866C1.97126 10.3465 1.96296 10.0941 1.96296 7.96586C1.96296 5.8376 1.97126 5.58656 2.01278 4.74641C2.0514 3.96936 2.19254 3.54762 2.31112 3.26669C2.46815 2.89477 2.65622 2.62911 2.95944 2.35016C3.26267 2.07122 3.55145 1.89854 3.95575 1.75376C4.26113 1.64418 4.71976 1.51467 5.56445 1.47897C6.36366 1.44576 6.67338 1.4358 8.28804 1.43414V1.43613ZM13.6897 2.7593C13.1158 2.7593 12.6501 3.18718 12.6501 3.71534C12.6501 4.24334 13.1158 4.67172 13.6897 4.67172C14.2637 4.67172 14.7293 4.24334 14.7293 3.71534C14.7293 3.18734 14.2637 2.75896 13.6897 2.75896V2.7593ZM9.06545 3.8769C6.60846 3.8769 4.61641 5.70946 4.61641 7.96973C4.61641 10.23 6.60846 12.0617 9.06545 12.0617C11.5224 12.0617 13.5138 10.23 13.5138 7.96973C13.5138 5.70946 11.5223 3.8769 9.06527 3.8769H9.06545ZM9.0651 5.31308C10.6599 5.31308 11.953 6.50241 11.953 7.96968C11.953 9.43679 10.6599 10.6263 9.0651 10.6263C7.47009 10.6263 6.17722 9.43679 6.17722 7.96968C6.17722 6.50241 7.47009 5.31308 9.0651 5.31308Z" fill="#DE0108"/>
</svg>
