<svg width="18" height="19" viewBox="0 0 18 19" fill="none" xmlns="http://www.w3.org/2000/svg">
<path fill-rule="evenodd" clip-rule="evenodd" d="M5 9.93164C5 8.87077 5.42143 7.85336 6.17157 7.10321C6.92172 6.35307 7.93913 5.93164 9 5.93164C10.0609 5.93164 11.0783 6.35307 11.8284 7.10321C12.5786 7.85336 13 8.87077 13 9.93164C13 10.9925 12.5786 12.0099 11.8284 12.7601C11.0783 13.5102 10.0609 13.9316 9 13.9316C7.93913 13.9316 6.92172 13.5102 6.17157 12.7601C5.42143 12.0099 5 10.9925 5 9.93164ZM9 10.9316C8.73478 10.9316 8.48043 10.8263 8.29289 10.6387C8.10536 10.4512 8 10.1969 8 9.93164C8 9.66642 8.10536 9.41207 8.29289 9.22453C8.48043 9.037 8.73478 8.93164 9 8.93164C9.26522 8.93164 9.51957 9.037 9.70711 9.22453C9.89464 9.41207 10 9.66642 10 9.93164C10 10.1969 9.89464 10.4512 9.70711 10.6387C9.51957 10.8263 9.26522 10.9316 9 10.9316Z" fill="#DE0108"/>
<path fill-rule="evenodd" clip-rule="evenodd" d="M0 9.93164C-1.76116e-08 8.74974 0.232792 7.57942 0.685084 6.48749C1.13738 5.39556 1.80031 4.40341 2.63604 3.56768C3.47177 2.73195 4.46392 2.06902 5.55585 1.61672C6.64778 1.16443 7.8181 0.931641 9 0.931641C10.1819 0.931641 11.3522 1.16443 12.4442 1.61672C13.5361 2.06902 14.5282 2.73195 15.364 3.56768C16.1997 4.40341 16.8626 5.39556 17.3149 6.48749C17.7672 7.57942 18 8.74974 18 9.93164C18 12.3186 17.0518 14.6078 15.364 16.2956C13.6761 17.9834 11.3869 18.9316 9 18.9316C6.61305 18.9316 4.32387 17.9834 2.63604 16.2956C0.948211 14.6078 3.55683e-08 12.3186 0 9.93164ZM9 16.9316C8.08075 16.9316 7.17049 16.7506 6.32122 16.3988C5.47194 16.047 4.70026 15.5314 4.05025 14.8814C3.40024 14.2314 2.88463 13.4597 2.53284 12.6104C2.18106 11.7611 2 10.8509 2 9.93164C2 9.01239 2.18106 8.10214 2.53284 7.25286C2.88463 6.40358 3.40024 5.6319 4.05025 4.98189C4.70026 4.33188 5.47194 3.81627 6.32122 3.46448C7.17049 3.1127 8.08075 2.93164 9 2.93164C10.8565 2.93164 12.637 3.66914 13.9497 4.98189C15.2625 6.29465 16 8.07513 16 9.93164C16 11.7882 15.2625 13.5686 13.9497 14.8814C12.637 16.1941 10.8565 16.9316 9 16.9316Z" fill="#DE0108"/>
</svg>
