<svg width="31" height="18" viewBox="0 0 31 18" fill="none" xmlns="http://www.w3.org/2000/svg">
<path fill-rule="evenodd" clip-rule="evenodd" d="M20.365 0.615036C20.4812 0.498628 20.6191 0.406271 20.771 0.343255C20.9228 0.280239 21.0856 0.247803 21.25 0.247803C21.4145 0.247803 21.5773 0.280239 21.7291 0.343255C21.881 0.406271 22.0189 0.498628 22.135 0.615036L29.635 8.11504C29.7514 8.23115 29.8438 8.36909 29.9068 8.52095C29.9698 8.67281 30.0023 8.83562 30.0023 9.00004C30.0023 9.16445 29.9698 9.32726 29.9068 9.47912C29.8438 9.63098 29.7514 9.76892 29.635 9.88504L22.135 17.385C21.9003 17.6198 21.582 17.7516 21.25 17.7516C20.9181 17.7516 20.5998 17.6198 20.365 17.385C20.1303 17.1503 19.9985 16.832 19.9985 16.5C19.9985 16.1681 20.1303 15.8498 20.365 15.615L26.9825 9.00004L20.365 2.38504C20.2486 2.26892 20.1563 2.13098 20.0933 1.97912C20.0302 1.82726 19.9978 1.66445 19.9978 1.50004C19.9978 1.33562 20.0302 1.17282 20.0933 1.02095C20.1563 0.86909 20.2486 0.731151 20.365 0.615036Z" fill="white"/>
<path fill-rule="evenodd" clip-rule="evenodd" d="M0 9C0 8.66848 0.131696 8.35054 0.366117 8.11612C0.600537 7.8817 0.918479 7.75 1.25 7.75H27.5C27.8315 7.75 28.1495 7.8817 28.3839 8.11612C28.6183 8.35054 28.75 8.66848 28.75 9C28.75 9.33152 28.6183 9.64946 28.3839 9.88388C28.1495 10.1183 27.8315 10.25 27.5 10.25H1.25C0.918479 10.25 0.600537 10.1183 0.366117 9.88388C0.131696 9.64946 0 9.33152 0 9Z" fill="white"/>
</svg>
