<svg width="21" height="16" viewBox="0 0 21 16" fill="none" xmlns="http://www.w3.org/2000/svg">
<path fill-rule="evenodd" clip-rule="evenodd" d="M10.2133 4.24018L10.2588 4.92961L9.50125 4.84519C6.74396 4.52158 4.33511 3.42411 2.28987 1.58094L1.28997 0.666388L1.03242 1.34175C0.487023 2.84724 0.835472 4.43716 1.97172 5.50648C2.57772 6.09742 2.44137 6.18184 1.39602 5.83009C1.03242 5.71753 0.714273 5.63311 0.683973 5.67532C0.577923 5.77381 0.941522 7.05418 1.22937 7.5607C1.62327 8.2642 2.42622 8.95364 3.30492 9.36167L4.04727 9.68528L3.16857 9.69935C2.32017 9.69935 2.28987 9.71342 2.38077 10.0089C2.68377 10.9234 3.88062 11.8943 5.21381 12.3164L6.15311 12.6118L5.33501 13.0621C4.12301 13.7093 2.69892 14.0751 1.27482 14.1033C0.593073 14.1173 0.0325241 14.1736 0.0325241 14.2158C0.0325241 14.3565 1.88082 15.1444 2.95647 15.454C6.18341 16.3685 10.0164 15.9746 12.8948 14.4128C14.9401 13.3013 16.9853 11.0923 17.9398 8.95364C18.4549 7.81396 18.97 5.7316 18.97 4.73263C18.97 4.08541 19.0154 4.00099 19.8638 3.22713C20.3638 2.77689 20.8334 2.28444 20.9243 2.14374C21.0758 1.87641 21.0607 1.87641 20.288 2.1156C19.0003 2.5377 18.8185 2.48142 19.4548 1.84827C19.9244 1.39803 20.485 0.581968 20.485 0.342778C20.485 0.300568 20.2577 0.370918 20.0002 0.497548C19.7275 0.638248 19.1215 0.849299 18.667 0.975929L17.8489 1.21512L17.1065 0.750808C16.6975 0.497548 16.1218 0.216147 15.8188 0.131727C15.0461 -0.0652533 13.8644 -0.0371132 13.1675 0.188007C11.2738 0.821159 10.077 2.45328 10.2133 4.24018Z" fill="#DE0108"/>
</svg>
